<svg xmlns="http://www.w3.org/2000/svg" width="288" height="87.063" viewBox="0 0 272 87.063">
  <defs>
    <style>
      .cls-1 {
        fill: #95a34e;
      }

      .cls-1, .cls-2 {
        fill-rule: evenodd;
      }

      .cls-2 {
        fill: #333;
      }

      .cls-3, .cls-4 {
        font-size: 36px;
        font-family: "Brandon Grotesque";
        font-weight: 700;
      }

      .cls-4 {
        font-style: italic;
      }
    </style>
  </defs>
  <path class="cls-1" d="M61.514,24.924C67.983,27.993,68.53,32.042,67,37c0,0-13.068,20.922-15,53L3,7C2.545,6.229,44.849,14.025,61.514,24.924Z" transform="translate(-3 -6.938)"/>
  <path class="cls-2" d="M99,69C87.432,49.563,73.679,23.01,109,7c-8.442,1.187-32.147,10.645-33,21C73,45.264,92.09,62.244,99,69Z" transform="translate(-3 -6.938)"/>
  <path class="cls-2" d="M67,13c1.028,3.29,7.548,4.268,8,1,0.4-2.917-2.1-3.176-4-3C69.036,11.182,67.244,11.41,67,13Z" transform="translate(-3 -6.938)"/>
  <text id="EIDE" class="cls-3" x="120.587" y="28.514">EIDE</text>
  <text id="fysioterapi" class="cls-4" x="121.04" y="64.17">fysioterapi</text>
</svg>
