<svg xmlns="http://www.w3.org/2000/svg" width="106" height="83.062" viewBox="0 0 106 83.062">
  <defs>
    <style>
      .cls-1 {
        fill: #95a34e;
      }

      .cls-1, .cls-2 {
        fill-rule: evenodd;
      }

      .cls-2 {
        fill: #333;
      }
    </style>
  </defs>
  <path class="cls-1" d="M594.514,315.924c6.469,3.069,7.016,7.118,5.486,12.076,0,0-13.068,20.922-15,53l-49-83C535.545,297.229,577.849,305.025,594.514,315.924Z" transform="translate(-536 -297.938)"/>
  <path class="cls-2" d="M632,360c-11.568-19.437-25.321-45.99,10-62-8.442,1.187-32.147,10.645-33,21C606,336.264,625.09,353.244,632,360Z" transform="translate(-536 -297.938)"/>
  <path class="cls-2" d="M600,304c1.028,3.289,7.548,4.269,8,1,0.4-2.917-2.1-3.176-4-3C602.036,302.182,600.244,302.41,600,304Z" transform="translate(-536 -297.938)"/>
</svg>